<svg width="38" height="24" viewBox="0 0 38 24" fill="none" xmlns="http://www.w3.org/2000/svg">
<path d="M13 4.99997V19L12 19V4.99998L13 4.99997Z" fill="white"/>
<path d="M26 4.99998V19L25 19V4.99997L26 4.99998Z" fill="white"/>
<path d="M15.0651 16.4698L18.1851 11.9419L15.2571 7.66991H16.9531L18.6971 10.3899C18.7718 10.5072 18.8411 10.6352 18.9051 10.7739C18.9798 10.9125 19.0384 11.0245 19.0811 11.1099C19.1131 11.0245 19.1611 10.9125 19.2251 10.7739C19.2998 10.6352 19.3744 10.5072 19.4491 10.3899L21.2091 7.66991H22.889L19.9611 11.9579L23.065 16.4698H21.3691L19.4811 13.5898C19.4064 13.4725 19.3318 13.3392 19.2571 13.1899C19.1931 13.0299 19.1344 12.9019 19.0811 12.8059C19.0384 12.9019 18.9744 13.0299 18.8891 13.1899C18.8144 13.3392 18.7344 13.4725 18.6491 13.5898L16.7451 16.4698H15.0651Z" fill="white"/>
</svg>
