<svg width="18" height="18" viewBox="0 0 18 18" fill="none" xmlns="http://www.w3.org/2000/svg">
<path d="M4.90123 2.25H15.75C15.9489 2.25 16.1397 2.32902 16.2803 2.46967C16.421 2.61032 16.5 2.80109 16.5 3V15C16.5 15.1989 16.421 15.3897 16.2803 15.5303C16.1397 15.671 15.9489 15.75 15.75 15.75H4.90123C4.77778 15.75 4.65624 15.7196 4.54739 15.6613C4.43854 15.6031 4.34574 15.5189 4.27723 15.4163L0.277479 9.41625C0.19525 9.293 0.151367 9.14816 0.151367 9C0.151367 8.85184 0.19525 8.707 0.277479 8.58375L4.27723 2.58375C4.34574 2.48106 4.43854 2.39687 4.54739 2.33865C4.65624 2.28043 4.77778 2.24998 4.90123 2.25ZM5.30248 3.75L1.80298 9L5.30248 14.25H15V3.75H5.30248ZM9.74998 7.9395L11.871 5.81775L12.9322 6.879L10.8105 9L12.9322 11.121L11.871 12.1823L9.74998 10.0605L7.62898 12.1823L6.56773 11.121L8.68948 9L6.56773 6.879L7.62898 5.81775L9.74998 7.9395Z" fill="white"/>
</svg>
