<svg width="18" height="18" viewBox="0 0 18 18" fill="none" xmlns="http://www.w3.org/2000/svg">
<path d="M12.75 4.49997H16.5V5.99997H15V15.75C15 15.9489 14.921 16.1396 14.7803 16.2803C14.6397 16.421 14.4489 16.5 14.25 16.5H3.75C3.55109 16.5 3.36032 16.421 3.21967 16.2803C3.07902 16.1396 3 15.9489 3 15.75V5.99997H1.5V4.49997H5.25V2.24997C5.25 2.05106 5.32902 1.86029 5.46967 1.71964C5.61032 1.57899 5.80109 1.49997 6 1.49997H12C12.1989 1.49997 12.3897 1.57899 12.5303 1.71964C12.671 1.86029 12.75 2.05106 12.75 2.24997V4.49997ZM13.5 5.99997H4.5V15H13.5V5.99997ZM6.75 8.24997H8.25V12.75H6.75V8.24997ZM9.75 8.24997H11.25V12.75H9.75V8.24997ZM6.75 2.99997V4.49997H11.25V2.99997H6.75Z" fill="white"/>
</svg>
