<svg width="17" height="21" viewBox="0 0 17 21" fill="none" xmlns="http://www.w3.org/2000/svg">
<path d="M11.288 12.56L10.952 6.24001V4.32001H12.648V6.24001L12.312 12.56H11.288ZM11.56 16.08C11.2827 16.08 11.0533 15.9893 10.872 15.808C10.6907 15.6267 10.6 15.3973 10.6 15.12C10.6 14.8427 10.6907 14.6133 10.872 14.432C11.0533 14.2507 11.2827 14.16 11.56 14.16H12.04C12.3493 14.16 12.584 14.2507 12.744 14.432C12.9147 14.6027 13 14.8267 13 15.104C13 15.3813 12.9093 15.616 12.728 15.808C12.5467 15.9893 12.3173 16.08 12.04 16.08H11.56Z" fill="white"/>
<path d="M0.799999 16L3.92 11.472L0.991999 7.20001H2.688L4.432 9.92001C4.50666 10.0373 4.576 10.1653 4.64 10.304C4.71466 10.4427 4.77333 10.5547 4.816 10.64C4.848 10.5547 4.896 10.4427 4.96 10.304C5.03466 10.1653 5.10933 10.0373 5.184 9.92001L6.94399 7.20001H8.62399L5.696 11.488L8.79999 16H7.10399L5.216 13.12C5.14133 13.0027 5.06666 12.8693 4.992 12.72C4.928 12.56 4.86933 12.432 4.816 12.336C4.77333 12.432 4.70933 12.56 4.624 12.72C4.54933 12.8693 4.46933 13.0027 4.384 13.12L2.48 16H0.799999Z" fill="white"/>
</svg>
