<svg width="16" height="24" viewBox="0 0 16 24" fill="none" xmlns="http://www.w3.org/2000/svg">
<path d="M9.98133 11V5.13334H10.9413V6.25334H11.144L10.9413 6.47734C10.9413 6.01511 11.08 5.65956 11.3573 5.41067C11.6347 5.15467 12.0187 5.02667 12.5093 5.02667C13.0996 5.02667 13.5689 5.208 13.9173 5.57067C14.2658 5.93334 14.44 6.42756 14.44 7.05334V11H13.48V7.16C13.48 6.74045 13.3662 6.42045 13.1387 6.2C12.9182 5.97245 12.616 5.85867 12.232 5.85867C11.8338 5.85867 11.5173 5.97956 11.2827 6.22134C11.0551 6.46311 10.9413 6.81156 10.9413 7.26667V11H9.98133Z" fill="white"/>
<path d="M0.799999 18.6667L3.92 14.1387L0.991999 9.86666H2.688L4.432 12.5867C4.50666 12.704 4.576 12.832 4.64 12.9707C4.71466 13.1093 4.77333 13.2213 4.816 13.3067C4.848 13.2213 4.896 13.1093 4.96 12.9707C5.03466 12.832 5.10933 12.704 5.184 12.5867L6.94399 9.86666H8.62399L5.696 14.1547L8.79999 18.6667H7.10399L5.216 15.7867C5.14133 15.6693 5.06666 15.536 4.992 15.3867C4.928 15.2267 4.86933 15.0987 4.816 15.0027C4.77333 15.0987 4.70933 15.2267 4.624 15.3867C4.54933 15.536 4.46933 15.6693 4.384 15.7867L2.48 18.6667H0.799999Z" fill="white"/>
</svg>
