<svg width="25" height="21" viewBox="0 0 25 21" fill="none" xmlns="http://www.w3.org/2000/svg">
<path d="M24.4713 4H11.4824L4.66263 15.8122L1 9.46825" stroke="white" stroke-width="2" stroke-linejoin="round"/>
<path d="M13.2824 16L16.4024 11.472L13.4744 7.20001H15.1704L16.9144 9.92001C16.9891 10.0373 17.0584 10.1653 17.1224 10.304C17.1971 10.4427 17.2558 10.5547 17.2984 10.64C17.3304 10.5547 17.3784 10.4427 17.4424 10.304C17.5171 10.1653 17.5918 10.0373 17.6664 9.92001L19.4264 7.20001H21.1064L18.1784 11.488L21.2824 16H19.5864L17.6984 13.12C17.6238 13.0027 17.5491 12.8693 17.4744 12.72C17.4104 12.56 17.3518 12.432 17.2984 12.336C17.2558 12.432 17.1918 12.56 17.1064 12.72C17.0318 12.8693 16.9518 13.0027 16.8664 13.12L14.9624 16H13.2824Z" fill="white"/>
</svg>
